# xmcd
#
# Track frame offsets:
#	150
#	20980
#	42910
#	63575
#	88938
#	145605
#	204225
#	232820
#
# Disc length: 3475 seconds
# Revision: 0
# Processed by: cddbd v1.5.2PL0 Copyright (c) Steve Scherf et al.
# Submitted via: dBpowerAMP V12.0
#
DISCID=690d9108
DTITLE=The S.O.U.L. S.Y.S.T.E.M. introducing Michelle Visage - It's Gonna Be A Lovely Day
DYEAR=1992
DGENRE=House
TTITLE0=It's Gonna Be A Lovely Day [Pop Radio Edit]
TTITLE1=It's Gonna Be A Lovely Day [Radio Mix]
TTITLE2=It's Gonna Be A Lovely Day [Radio Mix I]
TTITLE3=It's Gonna Be A Lovely Day [Easy Listening Sax Instrumental]
TTITLE4=It's Gonna Be A Lovely Day [Palladium House Anthem I]
TTITLE5=It's Gonna Be A Lovely Day [Palladium House Anthem II]
TTITLE6=It's Gonna Be A Lovely Day [Dub House Mix III]
TTITLE7=It's Gonna Be A Lovely Day [Deep House Instrumental]
EXTD=
EXTT0=
EXTT1=
EXTT2=
EXTT3=
EXTT4=
EXTT5=
EXTT6=
EXTT7=
PLAYORDER=
